<svg preserveAspectRatio="none" width="100%" height="100%" overflow="visible" style="display: block;" viewBox="0 0 40 40" fill="none" xmlns="http://www.w3.org/2000/svg">
<g id="Frame 1171277212">
<rect width="40" height="40" rx="20" fill="var(--fill-0, #2F2633)"/>
<g id="Icon">
<path d="M24.8 12L25.2942 12.9885C25.5066 13.4132 25.6128 13.6256 25.7547 13.8097C25.8806 13.973 26.027 14.1194 26.1903 14.2453C26.3744 14.3872 26.5868 14.4934 27.0115 14.7058L28 15.2L27.0115 15.6942C26.5868 15.9066 26.3744 16.0128 26.1903 16.1547C26.027 16.2806 25.8806 16.427 25.7547 16.5903C25.6128 16.7744 25.5066 16.9868 25.2942 17.4115L24.8 18.4L24.3058 17.4115C24.0934 16.9868 23.9872 16.7744 23.8453 16.5903C23.7194 16.427 23.573 16.2806 23.4097 16.1547C23.2256 16.0128 23.0132 15.9066 22.5885 15.6942L21.6 15.2L22.5885 14.7058C23.0132 14.4934 23.2256 14.3872 23.4097 14.2453C23.573 14.1194 23.7194 13.973 23.8453 13.8097C23.9872 13.6256 24.0934 13.4132 24.3058 12.9885L24.8 12Z" stroke="var(--stroke-0, white)" stroke-width="1.5" stroke-linecap="round" stroke-linejoin="round"/>
<path d="M27.2 21.1114C26.1512 22.9512 24.1716 24.1916 21.9024 24.1916C18.5369 24.1916 15.8086 21.4633 15.8086 18.0979C15.8086 15.8284 17.0492 13.8488 18.8892 12.8C15.0238 13.1665 12 16.4215 12 20.3828C12 24.5897 15.4103 28 19.6172 28C23.5783 28 26.8332 24.9765 27.2 21.1114Z" stroke="var(--stroke-0, white)" stroke-width="1.5" stroke-linecap="round" stroke-linejoin="round"/>
</g>
</g>
</svg>
